<?xml version="1.0" encoding="UTF-8" standalone="no"?>
<!-- Creator: CorelDRAW 2020 (64-Bit) -->

<svg
   xml:space="preserve"
   width="0.833331in"
   height="0.333335in"
   version="1.1"
   style="shape-rendering:geometricPrecision; text-rendering:geometricPrecision; image-rendering:optimizeQuality; fill-rule:evenodd; clip-rule:evenodd"
   viewBox="0 0 833.33 333.33"
   id="svg12"
   sodipodi:docname="250x100  LOGO SVG.svgz"
   xmlns:inkscape="http://www.inkscape.org/namespaces/inkscape"
   xmlns:sodipodi="http://sodipodi.sourceforge.net/DTD/sodipodi-0.dtd"
   xmlns="http://www.w3.org/2000/svg"
   xmlns:svg="http://www.w3.org/2000/svg"><sodipodi:namedview
   id="namedview12"
   pagecolor="#ffffff"
   bordercolor="#000000"
   borderopacity="0.25"
   inkscape:showpageshadow="2"
   inkscape:pageopacity="0.0"
   inkscape:pagecheckerboard="0"
   inkscape:deskcolor="#d1d1d1"
   inkscape:document-units="in" />
 <defs
   id="defs1">
  <style
   type="text/css"
   id="style1">
   <![CDATA[
    .fil0 {fill:none}
    .fil1 {fill:#F79633}
    .fil2 {fill:#284480;fill-rule:nonzero}
   ]]>
  </style>
 </defs>
 <g
   id="Layer_x0020_1"
   inkscape:label="Layer 1">
  <metadata
   id="CorelCorpID_0Corel-Layer" />
  <rect
   class="fil0"
   y="0"
   width="833.33"
   height="333.33"
   id="rect1" />
  <g
   id="_1956386329136">
   <path
   class="fil1"
   d="M246.27 89.23c-5.96,0 -10.78,-4.83 -10.78,-10.79l0 -28.56c-48.28,-23.2 -150.92,-21.7 -177.69,11.42 -30.59,37.85 -37.56,163.72 0,194.66 37.56,30.94 156.8,30.58 194.65,0 30.8,-24.88 34.26,-115.33 15.95,-166.73l-22.13 0z"
   id="path1" />
   <path
   class="fil1"
   d="M235.84 3.5l-13.24 0c-6.19,0 -11.2,5.01 -11.2,11.2l0 13.24c0,2.78 2.26,5.04 5.04,5.04l13.24 0c6.19,0 11.2,-5.01 11.2,-11.2l0 -13.24c0,-2.78 -2.26,-5.04 -5.04,-5.04z"
   id="path2" />
   <path
   class="fil1"
   d="M328.67 0l-13.24 0c-6.18,0 -11.2,5.02 -11.2,11.2l0 13.24c0,2.78 2.26,5.04 5.04,5.04l13.24 0c6.19,0 11.2,-5.02 11.2,-11.2l0 -13.24c0,-2.78 -2.26,-5.04 -5.04,-5.04z"
   id="path3" />
   <path
   class="fil1"
   d="M317.02 76.65l-17.45 0c-8.16,0 -14.76,6.61 -14.76,14.76l0 17.45c0,3.67 2.98,6.64 6.64,6.64l17.45 0c8.15,0 14.76,-6.61 14.76,-14.76l0 -17.45c0,-3.67 -2.97,-6.64 -6.64,-6.64z"
   id="path4" />
   <path
   class="fil1"
   d="M286.11 26.55l-23.99 0c-11.21,0 -20.3,9.09 -20.3,20.3l0 23.99c0,5.04 4.09,9.13 9.13,9.13l23.99 0c11.2,0 20.29,-9.09 20.29,-20.29l0 -23.99c0,-5.04 -4.09,-9.13 -9.13,-9.13z"
   id="path5" />
   <path
   class="fil2"
   d="M50.13 313.17c0,-2.46 0.93,-4.35 2.78,-5.65 1.85,-1.3 4.18,-1.94 6.98,-1.94 3.35,0 6.24,0.69 8.65,2.06l0 5.33c-2.26,-1.63 -5.01,-2.41 -8.24,-2.36 -2.9,0.05 -4.35,0.88 -4.35,2.48 0,0.71 0.36,1.33 1.09,1.87 0.72,0.54 1.63,0.96 2.71,1.28 1.08,0.32 2.25,0.73 3.51,1.22 1.26,0.5 2.43,1.03 3.51,1.6 1.08,0.57 1.98,1.42 2.71,2.54 0.72,1.12 1.08,2.41 1.08,3.89 0,1.45 -0.27,2.69 -0.82,3.74 -0.54,1.04 -1.31,1.85 -2.3,2.44 -0.99,0.58 -2.09,1.01 -3.28,1.28 -1.2,0.26 -2.53,0.4 -4,0.4 -3.71,0 -7,-0.8 -9.87,-2.4l0 -5.45c2.85,1.88 6,2.82 9.45,2.82 3.33,0 5,-0.85 5,-2.56 0,-0.76 -0.36,-1.43 -1.09,-2 -0.72,-0.57 -1.63,-1.03 -2.71,-1.37 -1.08,-0.34 -2.25,-0.76 -3.51,-1.26 -1.26,-0.5 -2.43,-1.03 -3.51,-1.6 -1.08,-0.57 -1.98,-1.4 -2.7,-2.5 -0.72,-1.09 -1.09,-2.37 -1.09,-3.85zm32.99 -7.06l18.8 0 0 5.04 -13.08 0 0 5.68 11.93 0 0 4.99 -11.93 0 0 5.95 13.31 0 0 5.04 -19.02 0 0 -26.69zm30.44 13.65c0,-2.33 0.41,-4.44 1.24,-6.31 0.82,-1.87 1.92,-3.36 3.28,-4.48 1.36,-1.11 2.88,-1.96 4.56,-2.54 1.68,-0.57 3.43,-0.85 5.26,-0.85 2.8,0 5.34,0.57 7.63,1.72l0 5.45c-1.8,-1.4 -4.03,-2.1 -6.67,-2.1 -2.59,0 -4.81,0.77 -6.65,2.31 -1.84,1.54 -2.76,3.81 -2.76,6.8 0,1.43 0.27,2.69 0.8,3.8 0.53,1.11 1.25,1.99 2.15,2.65 0.9,0.66 1.91,1.17 3.01,1.51 1.11,0.34 2.26,0.51 3.45,0.51 2.95,0 5.24,-0.74 6.87,-2.21l0 5.6c-2.37,1.15 -4.94,1.72 -7.74,1.72 -1.83,0 -3.58,-0.28 -5.26,-0.84 -1.68,-0.56 -3.21,-1.37 -4.59,-2.44 -1.39,-1.07 -2.49,-2.49 -3.31,-4.27 -0.83,-1.78 -1.24,-3.79 -1.24,-6.03zm52.59 -13.65l5.68 0 0 16.66c0,1.53 -0.22,2.9 -0.65,4.12 -0.43,1.22 -1.02,2.22 -1.75,3.02 -0.74,0.79 -1.61,1.45 -2.63,1.98 -1.02,0.54 -2.07,0.91 -3.18,1.13 -1.11,0.22 -2.27,0.32 -3.49,0.32 -1.22,0 -2.39,-0.11 -3.49,-0.32 -1.11,-0.22 -2.17,-0.59 -3.19,-1.13 -1.02,-0.53 -1.89,-1.19 -2.63,-1.98 -0.74,-0.79 -1.32,-1.8 -1.76,-3.02 -0.43,-1.22 -0.65,-2.59 -0.65,-4.12l0 -16.66 5.72 0 0 16.36c0,3.81 2,5.72 5.99,5.72 4.02,0 6.02,-1.91 6.02,-5.72l0 -16.36zm25.56 26.69l-5.72 0 0 -26.69 10.98 0c1.4,0 2.69,0.14 3.87,0.42 1.18,0.28 2.3,0.74 3.35,1.37 1.06,0.63 1.88,1.54 2.48,2.7 0.59,1.17 0.89,2.57 0.89,4.19 0,4.04 -1.94,6.69 -5.83,7.93l7.97 10.07 -6.6 0 -7.2 -9.34 -4.2 0 0 9.34zm0 -21.66l0 7.55 5.53 0c1.3,0 2.37,-0.31 3.22,-0.93 0.85,-0.62 1.28,-1.57 1.28,-2.84 0,-1.3 -0.42,-2.25 -1.26,-2.86 -0.84,-0.61 -1.92,-0.91 -3.24,-0.91l-5.53 0zm29.91 -5.04l5.72 0 0 26.69 -5.72 0 0 -26.69zm17.78 0l22.07 0 0 5.15 -8.2 0 0 21.54 -5.68 0 0 -21.54 -8.2 0 0 -5.15zm47.52 26.69l-5.68 0 0 -9.46 -10.45 -17.24 6.44 0 6.82 11.97 6.83 -11.97 6.44 0 -10.41 17.24 0 9.46zm48.82 -4.92l5.11 4.92 -6.06 0 -2.17 -2.02c-2.44,1.7 -5.33,2.56 -8.66,2.56 -2.8,0 -5.04,-0.66 -6.75,-1.98 -1.7,-1.32 -2.56,-3.04 -2.56,-5.15 0,-2.87 1.77,-5.3 5.3,-7.28 -1.98,-2.13 -2.97,-4.15 -2.97,-6.06 0,-2.11 0.85,-3.85 2.54,-5.22 1.69,-1.37 3.83,-2.06 6.43,-2.06 2.31,0 4.23,0.62 5.76,1.87 1.53,1.25 2.29,2.85 2.29,4.8 0,1.7 -0.6,3.14 -1.81,4.31 -1.2,1.17 -2.81,2.25 -4.82,3.24l4.88 4.73c0.86,-1.52 1.28,-3.11 1.26,-4.77l5.22 0c0,2.93 -0.99,5.63 -2.97,8.12zm-6.83 -15.4c0,-0.81 -0.27,-1.46 -0.8,-1.93 -0.54,-0.47 -1.3,-0.7 -2.29,-0.7 -1.15,0 -2.06,0.3 -2.75,0.91 -0.69,0.61 -1.03,1.33 -1.03,2.17 0,1.12 0.74,2.41 2.21,3.89 1.45,-0.66 2.59,-1.33 3.41,-2 0.83,-0.67 1.24,-1.45 1.24,-2.34zm-8.81 13.23c0,0.99 0.4,1.77 1.2,2.33 0.8,0.56 1.93,0.84 3.37,0.84 1.68,0 3.19,-0.42 4.54,-1.26l-6.1 -5.68c-2.01,1.12 -3.01,2.38 -3.01,3.78zm39.48 -12.54c0,-2.46 0.93,-4.35 2.78,-5.65 1.85,-1.3 4.18,-1.94 6.98,-1.94 3.35,0 6.24,0.69 8.65,2.06l0 5.33c-2.26,-1.63 -5.01,-2.41 -8.24,-2.36 -2.9,0.05 -4.35,0.88 -4.35,2.48 0,0.71 0.36,1.33 1.09,1.87 0.72,0.54 1.63,0.96 2.71,1.28 1.08,0.32 2.25,0.73 3.51,1.22 1.26,0.5 2.43,1.03 3.51,1.6 1.08,0.57 1.98,1.42 2.7,2.54 0.72,1.12 1.09,2.41 1.09,3.89 0,1.45 -0.27,2.69 -0.82,3.74 -0.54,1.04 -1.31,1.85 -2.3,2.44 -1,0.58 -2.09,1.01 -3.28,1.28 -1.19,0.26 -2.53,0.4 -4,0.4 -3.71,0 -7,-0.8 -9.87,-2.4l0 -5.45c2.85,1.88 6,2.82 9.46,2.82 3.33,0 5,-0.85 5,-2.56 0,-0.76 -0.36,-1.43 -1.09,-2 -0.72,-0.57 -1.63,-1.03 -2.71,-1.37 -1.08,-0.34 -2.25,-0.76 -3.51,-1.26 -1.26,-0.5 -2.43,-1.03 -3.51,-1.6 -1.08,-0.57 -1.98,-1.4 -2.7,-2.5 -0.72,-1.09 -1.09,-2.37 -1.09,-3.85zm56.56 -7.06l5.3 0 0 26.69 -5.72 0 0 -16.44 -7.06 10.72 -3.31 0 -7.06 -10.75 0 16.47 -5.72 0 0 -26.69 5.3 0 9.15 13.88 9.11 -13.88zm22.89 26.69l-5.91 0 10.91 -26.69 6.18 0 10.87 26.69 -5.91 0 -1.94 -5 -12.2 0 -1.98 5zm7.47 -19.3l-3.7 9.57 8.61 0 -3.74 -9.57c-0.25,-0.71 -0.44,-1.41 -0.57,-2.09 -0.15,0.79 -0.35,1.48 -0.61,2.09zm31.96 19.3l-5.72 0 0 -26.69 10.98 0c1.4,0 2.69,0.14 3.87,0.42 1.19,0.28 2.3,0.74 3.36,1.37 1.05,0.63 1.88,1.54 2.48,2.7 0.6,1.17 0.89,2.57 0.89,4.19 0,4.04 -1.94,6.69 -5.83,7.93l7.97 10.07 -6.59 0 -7.21 -9.34 -4.19 0 0 9.34zm0 -21.66l0 7.55 5.53 0c1.3,0 2.37,-0.31 3.22,-0.93 0.85,-0.62 1.28,-1.57 1.28,-2.84 0,-1.3 -0.42,-2.25 -1.26,-2.86 -0.84,-0.61 -1.92,-0.91 -3.24,-0.91l-5.53 0zm26.85 -5.04l22.07 0 0 5.15 -8.2 0 0 21.54 -5.68 0 0 -21.54 -8.2 0 0 -5.15zm40.31 7.06c0,-2.46 0.93,-4.35 2.78,-5.65 1.85,-1.3 4.18,-1.94 6.98,-1.94 3.35,0 6.24,0.69 8.66,2.06l0 5.33c-2.26,-1.63 -5.01,-2.41 -8.24,-2.36 -2.9,0.05 -4.35,0.88 -4.35,2.48 0,0.71 0.36,1.33 1.09,1.87 0.72,0.54 1.63,0.96 2.7,1.28 1.08,0.32 2.25,0.73 3.51,1.22 1.26,0.5 2.43,1.03 3.51,1.6 1.08,0.57 1.98,1.42 2.71,2.54 0.72,1.12 1.09,2.41 1.09,3.89 0,1.45 -0.28,2.69 -0.82,3.74 -0.55,1.04 -1.31,1.85 -2.31,2.44 -0.99,0.58 -2.09,1.01 -3.28,1.28 -1.2,0.26 -2.53,0.4 -4,0.4 -3.71,0 -7,-0.8 -9.87,-2.4l0 -5.45c2.85,1.88 6,2.82 9.45,2.82 3.33,0 5,-0.85 5,-2.56 0,-0.76 -0.36,-1.43 -1.09,-2 -0.72,-0.57 -1.63,-1.03 -2.71,-1.37 -1.08,-0.34 -2.25,-0.76 -3.51,-1.26 -1.26,-0.5 -2.43,-1.03 -3.51,-1.6 -1.08,-0.57 -1.98,-1.4 -2.7,-2.5 -0.72,-1.09 -1.09,-2.37 -1.09,-3.85zm32.4 11.52c-0.6,-1.65 -0.9,-3.39 -0.9,-5.22 0,-1.83 0.3,-3.57 0.9,-5.22 0.6,-1.65 1.47,-3.13 2.63,-4.42 1.16,-1.3 2.65,-2.33 4.48,-3.09 1.83,-0.76 3.89,-1.14 6.18,-1.14 2.29,0 4.35,0.38 6.18,1.14 1.83,0.76 3.32,1.8 4.48,3.09 1.15,1.3 2.03,2.77 2.63,4.42 0.59,1.65 0.89,3.39 0.89,5.22 0,1.83 -0.3,3.57 -0.89,5.22 -0.6,1.65 -1.48,3.13 -2.63,4.42 -1.16,1.3 -2.65,2.33 -4.48,3.09 -1.83,0.76 -3.89,1.14 -6.18,1.14 -2.29,0 -4.35,-0.38 -6.18,-1.14 -1.83,-0.76 -3.32,-1.8 -4.48,-3.09 -1.16,-1.3 -2.03,-2.77 -2.63,-4.42zm19.43 0.91c1.45,-1.63 2.17,-3.67 2.17,-6.14 0,-2.46 -0.72,-4.51 -2.17,-6.14 -1.45,-1.63 -3.5,-2.44 -6.14,-2.44 -2.67,0 -4.73,0.81 -6.18,2.44 -1.45,1.63 -2.17,3.67 -2.17,6.14 0,2.46 0.72,4.51 2.17,6.14 1.45,1.63 3.51,2.44 6.18,2.44 2.64,0 4.69,-0.81 6.14,-2.44zm20.98 -19.48l5.72 0 0 21.54 13.08 0 0 5.15 -18.8 0 0 -26.69zm47.74 0l5.69 0 0 16.66c0,1.53 -0.22,2.9 -0.65,4.12 -0.43,1.22 -1.02,2.22 -1.76,3.02 -0.74,0.79 -1.61,1.45 -2.63,1.98 -1.02,0.54 -2.08,0.91 -3.19,1.13 -1.1,0.22 -2.27,0.32 -3.49,0.32 -1.22,0 -2.38,-0.11 -3.49,-0.32 -1.11,-0.22 -2.17,-0.59 -3.19,-1.13 -1.02,-0.53 -1.89,-1.19 -2.63,-1.98 -0.74,-0.79 -1.32,-1.8 -1.75,-3.02 -0.43,-1.22 -0.65,-2.59 -0.65,-4.12l0 -16.66 5.72 0 0 16.36c0,3.81 2,5.72 5.98,5.72 4.02,0 6.02,-1.91 6.02,-5.72l0 -16.36zm17.48 0l22.07 0 0 5.15 -8.2 0 0 21.54 -5.68 0 0 -21.54 -8.2 0 0 -5.15zm34.14 0l5.72 0 0 26.69 -5.72 0 0 -26.69zm19.55 18.57c-0.6,-1.65 -0.9,-3.39 -0.9,-5.22 0,-1.83 0.3,-3.57 0.9,-5.22 0.6,-1.65 1.47,-3.13 2.63,-4.42 1.16,-1.3 2.65,-2.33 4.48,-3.09 1.83,-0.76 3.89,-1.14 6.18,-1.14 2.29,0 4.35,0.38 6.18,1.14 1.83,0.76 3.32,1.8 4.48,3.09 1.15,1.3 2.03,2.77 2.63,4.42 0.6,1.65 0.89,3.39 0.89,5.22 0,1.83 -0.3,3.57 -0.89,5.22 -0.6,1.65 -1.48,3.13 -2.63,4.42 -1.16,1.3 -2.65,2.33 -4.48,3.09 -1.83,0.76 -3.89,1.14 -6.18,1.14 -2.29,0 -4.35,-0.38 -6.18,-1.14 -1.83,-0.76 -3.32,-1.8 -4.48,-3.09 -1.16,-1.3 -2.03,-2.77 -2.63,-4.42zm19.43 0.91c1.45,-1.63 2.17,-3.67 2.17,-6.14 0,-2.46 -0.72,-4.51 -2.17,-6.14 -1.45,-1.63 -3.5,-2.44 -6.14,-2.44 -2.67,0 -4.73,0.81 -6.18,2.44 -1.45,1.63 -2.17,3.67 -2.17,6.14 0,2.46 0.72,4.51 2.17,6.14 1.45,1.63 3.51,2.44 6.18,2.44 2.64,0 4.69,-0.81 6.14,-2.44zm26.7 7.21l-5.72 0 0 -26.69 5.37 0 12.43 17.43c-0.07,-1.09 -0.11,-2.31 -0.11,-3.66l0 -13.76 5.72 0 0 26.69 -5.37 0 -12.43 -17.43c0.08,1.09 0.11,2.31 0.11,3.66l0 13.77z"
   id="path6" />
   <g
   id="g9">
    <path
   class="fil2"
   d="M167.37 229.34l-8.71 8.72c-1.96,1.96 -5.15,1.96 -7.11,0l-8.72 -8.72c-2.38,-2.37 -1.79,-6.35 1.15,-7.96 3.3,-1.81 7.09,-2.85 11.11,-2.85 4.04,0 7.82,1.03 11.12,2.85 2.94,1.62 3.53,5.59 1.15,7.96z"
   id="path7" />
    <path
   class="fil2"
   d="M176.26 191.55c-6.7,-2.83 -13.82,-4.28 -21.16,-4.28 -7.33,0 -14.44,1.44 -21.15,4.28 -3.89,1.64 -7.54,3.71 -10.91,6.19 -3.59,2.63 -3.94,7.87 -0.79,11.02l0 0c2.53,2.54 6.54,2.87 9.44,0.75 2.46,-1.8 5.13,-3.31 7.96,-4.51 4.89,-2.07 10.09,-3.12 15.46,-3.12 5.37,0 10.57,1.05 15.46,3.12 2.83,1.2 5.5,2.71 7.96,4.51 2.89,2.12 6.91,1.78 9.44,-0.75l0 -0c3.15,-3.15 2.8,-8.39 -0.8,-11.02 -3.38,-2.47 -7.02,-4.54 -10.91,-6.19z"
   id="path8" />
    <path
   class="fil2"
   d="M188.32 163c-10.52,-4.45 -21.7,-6.71 -33.22,-6.71 -11.51,0 -22.69,2.26 -33.21,6.71 -7.72,3.26 -14.83,7.59 -21.24,12.92 -3.3,2.74 -3.51,7.73 -0.48,10.76l0 0c2.68,2.68 6.94,2.85 9.86,0.43 5.3,-4.4 11.18,-7.97 17.55,-10.67 8.71,-3.69 17.97,-5.56 27.52,-5.56 9.55,0 18.81,1.87 27.53,5.56 6.37,2.69 12.25,6.27 17.55,10.67 2.91,2.42 7.18,2.24 9.85,-0.43l0 0c3.04,-3.03 2.83,-8.03 -0.48,-10.76 -6.41,-5.33 -13.52,-9.66 -21.24,-12.92z"
   id="path9" />
   </g>
   <path
   class="fil2"
   d="M92.52 117.53l0 -36.88 21.3 0 0 17.86 36.4 -32.49 94.98 84.8 0 41.78c-81.62,-72.87 -41.51,-37.06 -90.08,-80.42l-90.1 80.42 0 -50.52 27.5 -24.55z"
   id="path10" />
   <path
   class="fil2"
   d="M424.26 34.65l-37.62 0c-10.69,0 -14.3,5.83 -14.3,14.96l0 73.79 17 0c0,-12.05 0,-24.09 0,-36.26l20.62 0c10.56,0 13.91,-8.37 14.3,-16.23l-34.92 0 0 -19.65 34.92 0 0 -16.61zm12.89 0l0 52.49c0,22.19 5.8,37.78 31.7,37.78 25.89,0 32.47,-15.72 32.47,-37.78l0 -52.49c-13.4,-0.38 -17.01,6.08 -17.01,15.34l0 39.56c0,12.17 -4.51,19.27 -15.59,19.27 -10.95,0 -14.43,-7.73 -14.43,-18.89l0 -55.28 -17.14 0zm77.05 0l0 16.73 19.97 0 0 72.02 17.39 0 0 -72.02 10.31 0c7.48,0 14.04,-6.34 14.04,-16.73l-61.72 0zm73.31 0l0 52.49c0,22.19 5.8,37.78 31.69,37.78 25.9,0 32.47,-15.72 32.47,-37.78l0 -52.49c-13.4,-0.38 -17.01,6.08 -17.01,15.34l0 39.56c0,12.17 -4.51,19.27 -15.59,19.27 -10.95,0 -14.43,-7.73 -14.43,-18.89l0 -55.28 -17.14 0zm91.35 0c-10.44,0 -14.3,6.34 -14.3,15.59l0 73.15 17.14 0c0,-24.09 0,-48.18 0,-72.27l14.56 0c19.71,0 17.14,26.63 3.22,29.16 -4,0.63 -12.89,0.13 -14.69,-3.43 -2.96,4.19 -3.74,10.65 0,15.34l25 31.19 21 0 -22.55 -28.15c27.06,-10.02 28.22,-60.6 -9.66,-60.6l-19.71 0zm116.73 0l-37.11 0c-8.5,0 -14.82,5.57 -14.82,15.34l0 73.41 51.93 0 0 -16.61 -34.79 0 0 -19.65 20.61 0c10.44,0 13.78,-8.37 14.17,-16.23l-34.79 0 0 -19.65 34.79 0 0 -16.61z"
   id="path11" />
   <path
   class="fil2"
   d="M396.83 141.56c-11.38,-0.15 -22.26,5 -22.26,16.73l0 92.71 22.26 0 0 -56.76c1.48,9.07 9.07,12.04 16.66,12.04l21.93 0 0 44.72 22.26 0 0 -109.44 -22.26 0 0 44.72 -38.59 0 0 -44.72zm133.74 -2.03c-10.72,0 -20.61,2.5 -30.01,7.66 -6.43,3.59 -12.04,8.13 -16.66,13.6 10.56,-6.26 25.23,-5.78 33.15,1.09 4.12,-1.41 8.41,-2.03 13.19,-2.03 10.55,0 19.29,3.59 26.71,10.63 7.26,7.19 10.89,15.95 10.89,26.27 0,10.47 -3.63,19.07 -10.89,26.26 -7.26,7.04 -16,10.63 -26.22,10.63 -9.23,0 -17.31,-2.81 -24.24,-8.29 -8.57,-6.57 -13.03,-15.17 -13.52,-26.11 -0.83,-20.48 17.31,-24.86 25.72,-15.32 6.93,-25.33 -32.65,-29.39 -43.37,-9.07 -3.3,6.1 -4.45,15.48 -4.45,21.57 0,15.48 5.61,28.93 16.99,40.18 11.38,11.26 25.72,16.89 42.87,16.89 16.49,0 30.34,-5.47 41.89,-16.42 11.54,-10.94 17.15,-24.39 17.15,-40.18 0,-15.94 -5.78,-29.55 -17.48,-40.65 -11.54,-11.1 -25.56,-16.73 -41.72,-16.73zm100.93 1.88l-9.73 0c-11.54,0 -18.8,6.25 -18.8,16.41 0,31.27 0,62.23 0,93.19l21.93 0 0 -67.39 17.31 49.25c2.47,6.88 6.76,14.85 14.84,17.82 4.61,1.72 12.7,1.88 18.63,-1.09 -5.11,-3.44 -3.46,-10.79 -1.32,-16.89l17.98 -50.65 0 68.95 21.93 0 0 -109.44 -21.77 0 -0.16 0 -6.93 0 -27.04 76.46 -26.88 -76.61zm165.73 0.15l-47.5 0c-10.88,0 -18.96,6.88 -18.96,18.92l0 90.53 66.46 0 0 -20.48 -44.52 0 0 -24.23 26.39 0c13.35,0 17.64,-10.32 18.14,-20.01l-44.52 0 0 -24.23 44.52 0 0 -20.48z"
   id="path12" />
  </g>
 </g>
</svg>
