<?xml version="1.0" encoding="UTF-8" standalone="no"?>
<!-- Creator: CorelDRAW 2020 (64-Bit) -->

<svg
   xml:space="preserve"
   width="0.106665in"
   height="0.106665in"
   version="1.1"
   style="shape-rendering:geometricPrecision; text-rendering:geometricPrecision; image-rendering:optimizeQuality; fill-rule:evenodd; clip-rule:evenodd"
   viewBox="0 0 106.66 106.66"
   id="svg9"
   sodipodi:docname="32X32 LOGO SVG.svgz"
   xmlns:inkscape="http://www.inkscape.org/namespaces/inkscape"
   xmlns:sodipodi="http://sodipodi.sourceforge.net/DTD/sodipodi-0.dtd"
   xmlns="http://www.w3.org/2000/svg"
   xmlns:svg="http://www.w3.org/2000/svg"><sodipodi:namedview
   id="namedview9"
   pagecolor="#ffffff"
   bordercolor="#000000"
   borderopacity="0.25"
   inkscape:showpageshadow="2"
   inkscape:pageopacity="0.0"
   inkscape:pagecheckerboard="0"
   inkscape:deskcolor="#d1d1d1"
   inkscape:document-units="in" />
 <defs
   id="defs1">
  <style
   type="text/css"
   id="style1">
   <![CDATA[
    .fil0 {fill:none}
    .fil1 {fill:#F79633}
    .fil2 {fill:#284480;fill-rule:nonzero}
   ]]>
  </style>
 </defs>
 <g
   id="Layer_x0020_1"
   inkscape:label="Layer 1">
  <metadata
   id="CorelCorpID_0Corel-Layer" />
  <rect
   class="fil0"
   x="0"
   y="-0"
   width="106.66"
   height="106.66"
   id="rect1" />
  <g
   id="_1956840903152">
   <path
   class="fil1"
   d="M75.25 35.93c-2.06,0 -3.74,-1.67 -3.74,-3.74l0 -9.88c-16.7,-8.03 -52.22,-7.51 -61.49,3.95 -10.59,13.1 -13,56.65 0,67.36 13,10.71 54.26,10.58 67.36,0 10.66,-8.61 11.85,-39.91 5.52,-57.69l-7.66 0z"
   id="path1" />
   <path
   class="fil1"
   d="M71.64 6.26l-4.58 0c-2.14,0 -3.87,1.74 -3.87,3.87l0 4.58c0,0.96 0.78,1.74 1.74,1.74l4.58 0c2.14,0 3.87,-1.73 3.87,-3.87l0 -4.58c0,-0.96 -0.78,-1.74 -1.74,-1.74z"
   id="path2" />
   <path
   class="fil1"
   d="M103.76 5.05l-4.58 0c-2.14,0 -3.87,1.74 -3.87,3.88l0 4.58c0,0.96 0.78,1.74 1.74,1.74l4.58 0c2.14,0 3.88,-1.74 3.88,-3.88l0 -4.58c0,-0.96 -0.78,-1.74 -1.74,-1.74z"
   id="path3" />
   <path
   class="fil1"
   d="M99.73 31.57l-6.04 0c-2.82,0 -5.11,2.29 -5.11,5.11l0 6.04c0,1.27 1.03,2.3 2.3,2.3l6.04 0c2.82,0 5.11,-2.29 5.11,-5.11l0 -6.04c0,-1.27 -1.03,-2.3 -2.3,-2.3z"
   id="path4" />
   <path
   class="fil1"
   d="M89.03 14.24l-8.3 0c-3.88,0 -7.02,3.14 -7.02,7.02l0 8.3c0,1.74 1.42,3.16 3.16,3.16l8.3 0c3.88,0 7.02,-3.15 7.02,-7.02l0 -8.3c0,-1.74 -1.41,-3.16 -3.16,-3.16z"
   id="path5" />
   <g
   id="g8">
    <path
   class="fil2"
   d="M47.94 84.41l-3.02 3.02c-0.68,0.68 -1.78,0.68 -2.46,0l-3.02 -3.02c-0.82,-0.82 -0.62,-2.2 0.4,-2.76 1.14,-0.63 2.45,-0.98 3.85,-0.98 1.39,0 2.7,0.35 3.85,0.98 1.02,0.56 1.22,1.93 0.4,2.76z"
   id="path6" />
    <path
   class="fil2"
   d="M51.02 71.33c-2.32,-0.98 -4.78,-1.48 -7.32,-1.48 -2.54,0 -5,0.5 -7.32,1.48 -1.35,0.57 -2.61,1.29 -3.78,2.14 -1.24,0.91 -1.37,2.72 -0.28,3.81l0 0c0.87,0.87 2.26,0.99 3.26,0.26 0.85,-0.62 1.78,-1.15 2.76,-1.56 1.69,-0.72 3.49,-1.08 5.35,-1.08 1.86,0 3.66,0.36 5.35,1.08 0.98,0.41 1.9,0.94 2.75,1.56 1,0.73 2.39,0.61 3.27,-0.26l0 -0c1.09,-1.09 0.97,-2.9 -0.28,-3.81 -1.17,-0.85 -2.43,-1.57 -3.78,-2.14z"
   id="path7" />
    <path
   class="fil2"
   d="M55.19 61.45c-3.64,-1.54 -7.51,-2.32 -11.49,-2.32 -3.98,0 -7.85,0.78 -11.49,2.32 -2.67,1.13 -5.13,2.63 -7.35,4.47 -1.14,0.95 -1.21,2.68 -0.16,3.72l0 0c0.93,0.93 2.4,0.99 3.41,0.15 1.83,-1.52 3.87,-2.76 6.07,-3.69 3.01,-1.28 6.22,-1.92 9.52,-1.92 3.3,0 6.51,0.65 9.52,1.92 2.2,0.93 4.24,2.17 6.07,3.69 1.01,0.84 2.48,0.78 3.41,-0.15l0 0c1.05,-1.05 0.98,-2.78 -0.17,-3.72 -2.22,-1.84 -4.68,-3.34 -7.35,-4.47z"
   id="path8" />
   </g>
   <path
   class="fil2"
   d="M22.04 45.72l0 -12.76 7.37 0 0 6.18 12.59 -11.24 32.87 29.35 0 14.46c-28.25,-25.22 -14.37,-12.82 -31.18,-27.83l-31.18 27.83 0 -17.48 9.52 -8.49z"
   id="path9" />
  </g>
 </g>
</svg>
